<svg id="Layer_1" data-name="Layer 1" xmlns="http://www.w3.org/2000/svg" version="1.1" viewBox="0 0 659.6 888.1">
  <defs>
    <style>
      .cls-1 {
        fill: none;
        stroke: #fff;
        stroke-linecap: round;
        stroke-linejoin: round;
        stroke-width: 2px;
      }

      .cls-2 {
        fill: #2b3759;
      }

      .cls-2, .cls-3, .cls-4 {
        stroke-width: 0px;
      }

      .cls-3 {
        fill: #bbbcc4;
      }

      .cls-4 {
        fill: #636885;
      }

			<style type = "text/css">
				@import url('svg.css');
			</style>
    </style>
  </defs>
  <g id="Graphic_Elements" data-name="Graphic Elements">
    <g>
      <g id='p1'>
        <polygon class="cls-4" points="144.9 26.6 78.1 127.9 116.2 112.9 144.9 26.6"/>
        <polygon class="cls-3" points="232.6 127.9 144.9 26.6 116.2 112.9 232.6 127.9"/>
        <polygon class="cls-3" points="116.2 172.8 78.1 127.9 116.2 112.9 116.2 172.8"/>
        <polygon class="cls-2" points="232.6 127.9 116.2 172.8 116.2 112.9 232.6 127.9"/>
      </g>

      <g id='p2'>
        <polygon class="cls-2" points="612 193 662 246.6 586.2 237.6 612 193"/>
        <polygon class="cls-3" points="603.5 287.4 662 246.6 586.2 237.6 603.5 287.4"/>
      </g>
      <g id='p3'>
        <polygon class="cls-4" points="171.4 602.7 65.4 540.9 86.7 584.6 171.4 602.7"/>
        <polygon class="cls-3" points="96.1 730.2 171.4 602.7 86.7 584.6 96.1 730.2"/>
        <polygon class="cls-3" points="31.7 596.5 65.4 540.9 86.7 584.6 31.7 596.5"/>
        <polygon class="cls-2" points="96.1 730.2 31.7 596.5 86.7 584.6 96.1 730.2"/>
      </g>
      <g id='p4'>
        <polygon class="cls-2" points="337.1 379.1 327.6 306.7 382.9 366.1 382.9 441.2 337.1 379.1"/>
        <polygon class="cls-4" points="382.9 441.2 337.1 379.1 285.6 393.7 382.9 441.2"/>
        <polygon class="cls-3" points="285.6 393.7 337.1 379.1 327.6 306.7 285.6 393.7"/>
      </g>
      <g id='p5'>
        <polygon class="cls-4" points="645.5 14.6 527 24 564.6 49.1 645.5 14.6"/>
        <polygon class="cls-3" points="622.1 149.3 645.5 14.6 564.6 49.1 622.1 149.3"/>
        <polygon class="cls-2" points="564.6 49.1 622.1 149.3 527 24 564.6 49.1"/>
      </g>
      <polygon class="cls-3" points="493.9 693.1 428 783.7 507.5 767.6 493.9 693.1"/>
      <polygon class="cls-3" points="463.8 547.9 509.4 499.5 463 499.5 463.8 547.9"/>
      <g id='p6'>
        <polygon class="cls-4" points="2.4 220.7 71.1 216.1 6.8 266.5 2.4 220.7"/>
        <polygon class="cls-3" points="47.7 283.6 71.1 216.1 6.8 266.5 47.7 283.6"/>
      </g>
      <g id='p7'>
        <polygon class="cls-1" points="454.4 172.9 505.2 160.7 475.9 215 420.7 218.4 454.4 172.9"/>
        <polygon class="cls-1" points="420.7 218.4 454.4 172.9 430.2 125.5 420.7 218.4"/>
        <polygon class="cls-1" points="430.2 125.5 454.4 172.9 505.2 160.7 430.2 125.5"/>
      </g>
      <g id='p8'>
        <polygon class="cls-1" points="513 600.6 574.9 483.4 588.6 635.2 513 600.6"/>
        <polygon class="cls-1" points="656.3 583.4 574.9 483.4 588.6 635.2 656.3 583.4"/>
      </g>
      <g id='p9'>
        <polygon class="cls-1" points="298.2 735.4 271.5 869.2 217.1 730.2 298.2 735.4"/>
        <polygon class="cls-1" points="166.9 804.1 271.5 869.2 217.1 730.2 166.9 804.1"/>
      </g>
      <g id='p10'>
        <polygon class="cls-1" points="119.8 258.1 155.4 389.1 47.6 301.1 119.8 258.1"/>
        <polygon class="cls-1" points="36.7 394.2 155.4 389.1 47.6 301.1 36.7 394.2"/>
      </g>
    </g>
  </g>
</svg>
